# xmcd
#
# Track frame offsets:
#	150
#	13272
#	28510
#	45860
#	60315
#	76347
#	93137
#	111705
#	128320
#	142342
#
# Disc length: 2086 seconds
#
# Revision: 2
# Processed by: cddbd v1.5.2PL0 Copyright (c) Steve Scherf et al.
# Submitted via: EasyCDDAExtractor 9.1.3.1
#
DISCID=7808240a
DTITLE=Marie Osmond - All In Love
DYEAR=1988
DGENRE=Country
TTITLE0=I'm In Love And He's In Dallas
TTITLE1=Raining Tears
TTITLE2=My Home Town Boy
TTITLE3=Baby's Blue Eyes
TTITLE4=Lonely As The Night Is Lone
TTITLE5=99% Of The Time
TTITLE6=Somebody Else's Moon
TTITLE7=Sweet Life
TTITLE8=All In Love
TTITLE9=Without A Trace
EXTD=
EXTT0=
EXTT1=
EXTT2=
EXTT3=
EXTT4=
EXTT5=
EXTT6=
EXTT7=
EXTT8=
EXTT9=
PLAYORDER=
